<?xml version="1.0" encoding="UTF-8"?>
<svg id="Layer_1" data-name="Layer 1" xmlns="http://www.w3.org/2000/svg" viewBox="0 0 714 341.91">
  <defs>
    <style>
      .cls-1 {
        fill: none;
        stroke: #1b1464;
        stroke-width: 2px;
      }
    </style>
  </defs>
  <polyline class="cls-1" points="310.28 59.14 338.01 59.14 340.64 67.04 384.48 67.04 388.18 59.14 415.32 59.14"/>
  <rect class="cls-1" x="313.77" y="89.41" width="32.42" height="28.63"/>
  <rect class="cls-1" x="355.11" y="89.41" width="54.3" height="61.88"/>
  <rect class="cls-1" x="313.77" y="123.39" width="32.42" height="27.67"/>
  <rect class="cls-1" x="313.77" y="177.38" width="95.64" height="17.59"/>
  <rect class="cls-1" x="313.77" y="201.13" width="95.64" height="15.91"/>
  <polygon class="cls-1" points="313.77 236.02 335.71 235.99 335.71 287.03 313.77 287.03 313.77 236.02"/>
  <polygon class="cls-1" points="343.13 236.02 343.13 287.03 409.41 287.03 409.41 235.99 343.13 236.02"/>
  <path class="cls-1" d="m296.07,62.6c-.07-4.15-.19-6.45.98-9.39.57-1.42,1.54-3.77,3.92-5.44,2.12-1.49,4.37-1.75,6.37-1.98,1.72-.2,2.71-.09,4.9,0,3.14.13,3.65,0,8.33,0,9.62,0,36.24.49,36.24.49,20.41.38,25.1.49,31.83.49h23.02l6.86.49h0s2.26.68,3.43,1.48c1.04.71,1.74,1.88,2.45,4.94,1.05,4.5.98,8.14.98,8.4-.07,4.12.28,8.25,0,12.35-.9,13.31-.3,26.68-.49,40.03-.3,21.26.62,20.48.98,54.85.01,1.25,0,.33,0,43.48,0,37.86,0,56.78,0,56.83.37,5.09-.12,10.21,0,15.32.02.64.07,2.54-.49,4.94-.27,1.18-.76,3.28-1.96,4.94-1.41,1.95-3.57,2.97-7.84,3.95-7.35,1.69-12.24,1.48-12.24,1.48-8.64-.37-17.31.23-25.96,0-13.14-.36-19.71-.53-24.49-.49-9.9.08-14.85.13-20.57.49-6.35.41-12.74-.29-19.1,0-1.28.06-4.5.22-7.84-1.48-.97-.49-3.36-1.76-4.9-4.45-.84-1.48-1.09-2.79-1.47-4.94-.55-3.1-.5-5.51-.49-5.93.11-5.77-.55-11.53-.49-17.29.15-13.18-.42-26.35-.49-39.53-.09-16.47-.33-32.94-.49-49.41-.5-52.47-.46-49.77-.49-51.88-.23-17.29.44-34.61-.49-51.88-.2-3.62.06-7.25,0-10.87Z"/>
</svg>